<svg viewBox="0 0 16 16" fill="none" xmlns="http://www.w3.org/2000/svg"><path d="M5.5 9.5a1.5 1.5 0 01-1.5 1.5 1.5 1.5 0 01-1.5-1.5 1.5 1.5 0 011.5-1.5H5.5v1.5zM6.5 9.5a1.5 1.5 0 011.5-1.5 1.5 1.5 0 011.5 1.5v3.5a1.5 1.5 0 01-1.5 1.5 1.5 1.5 0 01-1.5-1.5V9.5zM6.5 6.5a1.5 1.5 0 01-1.5-1.5 1.5 1.5 0 011.5-1.5 1.5 1.5 0 011.5 1.5V6.5H6.5zM6.5 7.5a1.5 1.5 0 011.5 1.5 1.5 1.5 0 01-1.5 1.5H3a1.5 1.5 0 01-1.5-1.5A1.5 1.5 0 013 7.5h3.5z" stroke="rgba(74,222,128,0.85)" stroke-width="1.1" stroke-linecap="round"/><path d="M9.5 6.5a1.5 1.5 0 011.5-1.5 1.5 1.5 0 011.5 1.5 1.5 1.5 0 01-1.5 1.5H9.5V6.5zM8.5 6.5a1.5 1.5 0 01-1.5 1.5 1.5 1.5 0 01-1.5-1.5V3a1.5 1.5 0 011.5-1.5A1.5 1.5 0 018.5 3v3.5z" stroke="rgba(248,113,113,0.85)" stroke-width="1.1" stroke-linecap="round"/><path d="M8.5 9.5a1.5 1.5 0 011.5 1.5 1.5 1.5 0 01-1.5 1.5 1.5 1.5 0 01-1.5-1.5V9.5h1.5zM8.5 8.5a1.5 1.5 0 011.5-1.5H13a1.5 1.5 0 011.5 1.5 1.5 1.5 0 01-1.5 1.5H10a1.5 1.5 0 01-1.5-1.5z" stroke="rgba(99,162,248,0.85)" stroke-width="1.1" stroke-linecap="round"/></svg>
